# 3ds Max Wavefront OBJ Exporter v0.99 - (c)2007 guruware
# 创建的文件:23.11.2022 20:48:11

mtllib title.mtl

#
# object Text001
#

v  -86.1030 0.0000 -0.0003
v  -81.3216 0.0000 -0.0003
v  -81.3216 12.0000 -0.0003
v  -86.1030 12.0000 -0.0003
v  -81.3216 0.0000 -38.5746
v  -81.3216 12.0000 -38.5746
v  -76.2167 0.0000 -38.5746
v  -76.2167 12.0000 -38.5746
v  -76.7966 0.0000 -42.5807
v  -76.7966 12.0000 -42.5807
v  -90.6274 0.0000 -42.5807
v  -90.6274 12.0000 -42.5807
v  -91.2073 0.0000 -38.5746
v  -91.2073 12.0000 -38.5746
v  -86.1030 0.0000 -38.5746
v  -86.1030 12.0000 -38.5746
v  -62.2845 0.0000 -31.9194
v  -69.8010 0.0000 -31.9194
v  -69.8010 12.0000 -31.9194
v  -62.2845 12.0000 -31.9194
v  -75.3918 0.0000 0.0001
v  -75.3918 12.0000 0.0001
v  -70.0480 0.0000 0.0001
v  -70.0480 12.0000 0.0001
v  -68.5607 0.0000 -9.4727
v  -68.5607 12.0000 -9.4727
v  -63.5237 0.0000 -9.4727
v  -63.5237 12.0000 -9.4727
v  -62.0364 0.0000 0.0001
v  -62.0364 12.0000 0.0001
v  -56.6926 0.0000 0.0001
v  -56.6926 12.0000 0.0001
v  -67.7223 0.0000 -14.8165
v  -66.0425 0.0000 -25.5151
v  -66.0425 12.0000 -25.5151
v  -67.7223 12.0000 -14.8165
v  -64.3627 0.0000 -14.8165
v  -64.3627 12.0000 -14.8165
v  -43.6378 0.0000 -31.9194
v  -43.6378 0.0000 -13.9891
v  -43.6378 12.0000 -13.9891
v  -43.6378 12.0000 -31.9194
v  -50.4862 0.0000 -31.9194
v  -50.4862 12.0000 -31.9194
v  -55.8300 0.0000 -31.9194
v  -55.8300 12.0000 -31.9194
v  -55.8300 0.0000 0.0001
v  -55.8300 12.0000 0.0001
v  -50.4862 0.0000 0.0001
v  -50.4862 12.0000 0.0001
v  -50.4862 0.0000 -17.9302
v  -50.4862 12.0000 -17.9302
v  -43.6378 0.0000 0.0001
v  -43.6378 12.0000 0.0001
v  -38.2940 0.0000 0.0001
v  -38.2940 12.0000 0.0001
v  -38.2940 0.0000 -31.9194
v  -38.2940 12.0000 -31.9194
v  -17.9310 0.0000 -31.9194
v  -24.0204 0.0000 -31.9194
v  -24.0204 12.0000 -31.9194
v  -17.9310 12.0000 -31.9194
v  -31.5061 0.0000 -18.2178
v  -31.5061 12.0000 -18.2178
v  -31.5061 0.0000 -31.9194
v  -31.5061 12.0000 -31.9194
v  -36.8499 0.0000 -31.9194
v  -36.8499 12.0000 -31.9194
v  -36.8499 0.0000 0.0001
v  -36.8499 12.0000 0.0001
v  -31.5061 0.0000 0.0001
v  -31.5061 12.0000 0.0001
v  -31.5061 0.0000 -7.0728
v  -31.5061 12.0000 -7.0728
v  -29.6727 0.0000 -10.4289
v  -29.6727 12.0000 -10.4289
v  -24.0210 0.0000 0.0001
v  -24.0210 12.0000 0.0001
v  -17.9432 0.0000 0.0001
v  -17.9432 12.0000 0.0001
v  -26.6216 0.0000 -16.0133
v  -26.6216 12.0000 -16.0133
v  0.3724 0.0000 -20.6120
v  0.3724 0.0000 -29.4864
v  0.3724 12.0000 -29.4864
v  0.3724 12.0000 -20.6120
v  -0.8444 0.0000 -30.7031
v  -0.8444 12.0000 -30.7031
v  -2.0606 0.0000 -31.9194
v  -2.0606 12.0000 -31.9194
v  -14.0198 0.0000 -31.9194
v  -14.0198 12.0000 -31.9194
v  -15.2365 0.0000 -30.7027
v  -15.2365 12.0000 -30.7027
v  -16.4528 0.0000 -29.4864
v  -16.4528 12.0000 -29.4864
v  -16.4528 0.0000 -22.8658
v  -16.4528 12.0000 -22.8658
v  -16.4487 0.0000 -22.7157
v  -16.4487 12.0000 -22.7157
v  -16.4372 0.0000 -22.5672
v  -16.4372 12.0000 -22.5672
v  -16.4183 0.0000 -22.4204
v  -16.4183 12.0000 -22.4204
v  -16.3921 0.0000 -22.2753
v  -16.3921 12.0000 -22.2753
v  -16.3584 0.0000 -22.1318
v  -16.3584 12.0000 -22.1318
v  -16.3174 0.0000 -21.9901
v  -16.3174 12.0000 -21.9901
v  -16.2690 0.0000 -21.8499
v  -16.2690 12.0000 -21.8499
v  -16.2135 0.0000 -21.7124
v  -16.2135 12.0000 -21.7124
v  -16.1514 0.0000 -21.5785
v  -16.1514 12.0000 -21.5785
v  -16.0826 0.0000 -21.4482
v  -16.0826 12.0000 -21.4482
v  -16.0072 0.0000 -21.3215
v  -16.0072 12.0000 -21.3215
v  -15.9250 0.0000 -21.1983
v  -15.9250 12.0000 -21.1983
v  -15.8362 0.0000 -21.0788
v  -15.8362 12.0000 -21.0788
v  -15.7407 0.0000 -20.9628
v  -15.7407 12.0000 -20.9628
v  -12.7395 0.0000 -17.5151
v  -12.7395 12.0000 -17.5151
v  -4.9708 0.0000 -8.5879
v  -4.9708 12.0000 -8.5879
v  -4.9708 0.0000 -4.5714
v  -4.9708 12.0000 -4.5714
v  -11.1090 0.0000 -4.5714
v  -11.1090 12.0000 -4.5714
v  -11.1090 0.0000 -11.7596
v  -11.1090 12.0000 -11.7596
v  -16.4528 0.0000 -11.7596
v  -16.4528 12.0000 -11.7596
v  -16.4528 0.0000 -2.4329
v  -16.4528 12.0000 -2.4329
v  -15.2363 0.0000 -1.2162
v  -15.2363 12.0000 -1.2162
v  -14.0198 0.0000 0.0001
v  -14.0198 12.0000 0.0001
v  -2.0612 0.0000 0.0001
v  -2.0612 12.0000 0.0001
v  -0.8445 0.0000 -1.2166
v  -0.8445 12.0000 -1.2166
v  0.3718 0.0000 -2.4329
v  0.3718 12.0000 -2.4329
v  0.3718 0.0000 -9.5029
v  0.3718 12.0000 -9.5029
v  0.3677 0.0000 -9.6530
v  0.3677 12.0000 -9.6530
v  0.3562 0.0000 -9.8015
v  0.3562 12.0000 -9.8015
v  0.3373 0.0000 -9.9483
v  0.3373 12.0000 -9.9483
v  0.3110 0.0000 -10.0934
v  0.3110 12.0000 -10.0934
v  0.2774 0.0000 -10.2368
v  0.2774 12.0000 -10.2368
v  0.2364 0.0000 -10.3786
v  0.2364 12.0000 -10.3786
v  0.1880 0.0000 -10.5188
v  0.1880 12.0000 -10.5188
v  0.1325 0.0000 -10.6562
v  0.1325 12.0000 -10.6562
v  0.0704 0.0000 -10.7902
v  0.0704 12.0000 -10.7902
v  0.0016 0.0000 -10.9205
v  0.0016 12.0000 -10.9205
v  -0.0738 0.0000 -11.0472
v  -0.0738 12.0000 -11.0472
v  -0.1560 0.0000 -11.1704
v  -0.1560 12.0000 -11.1704
v  -0.2448 0.0000 -11.2899
v  -0.2448 12.0000 -11.2899
v  -0.3403 0.0000 -11.4059
v  -0.3403 12.0000 -11.4059
v  -4.9714 0.0000 -16.7276
v  -4.9714 12.0000 -16.7276
v  -11.1096 0.0000 -23.7808
v  -11.1096 12.0000 -23.7808
v  -11.1096 0.0000 -27.3474
v  -11.1096 12.0000 -27.3474
v  -4.9714 0.0000 -27.3474
v  -4.9714 12.0000 -27.3474
v  -4.9714 0.0000 -20.6120
v  -4.9714 12.0000 -20.6120
v  49.3024 0.0000 -31.9194
v  45.2969 -0.0000 -6.4042
v  45.2969 12.0000 -6.4042
v  49.3024 12.0000 -31.9194
v  41.2914 0.0000 -31.9194
v  41.2914 12.0000 -31.9194
v  35.9458 0.0000 -31.9194
v  35.9458 12.0000 -31.9194
v  31.9403 -0.0000 -6.4042
v  31.9403 12.0000 -6.4042
v  27.9348 0.0000 -31.9194
v  27.9348 12.0000 -31.9194
v  22.5916 0.0000 -31.9194
v  22.5916 12.0000 -31.9194
v  28.1818 -0.0000 0.0001
v  28.1818 12.0000 0.0001
v  35.6988 -0.0000 0.0001
v  35.6988 12.0000 0.0001
v  38.6189 -0.0000 -16.6708
v  38.6189 12.0000 -16.6708
v  41.5384 -0.0000 0.0001
v  41.5384 12.0000 0.0001
v  49.0554 -0.0000 0.0001
v  49.0554 12.0000 0.0001
v  54.6462 0.0000 -31.9194
v  54.6462 12.0000 -31.9194
v  67.9270 -0.0000 -31.9194
v  60.4106 0.0000 -31.9194
v  60.4106 12.0000 -31.9194
v  67.9270 12.0000 -31.9194
v  54.8198 -0.0000 0.0001
v  54.8198 12.0000 0.0001
v  60.1636 -0.0000 0.0001
v  60.1636 12.0000 0.0001
v  61.6509 -0.0000 -9.4727
v  61.6509 12.0000 -9.4727
v  66.6879 -0.0000 -9.4727
v  66.6879 12.0000 -9.4727
v  68.1752 -0.0000 0.0001
v  68.1752 12.0000 0.0001
v  73.5190 -0.0000 0.0001
v  73.5190 12.0000 0.0001
v  62.4893 -0.0000 -14.8165
v  64.1691 -0.0000 -25.5151
v  64.1691 12.0000 -25.5151
v  62.4893 12.0000 -14.8165
v  65.8489 -0.0000 -14.8165
v  65.8489 12.0000 -14.8165
v  91.2073 -0.0000 -14.0291
v  91.2073 -0.0000 -29.0202
v  91.2073 12.0000 -29.0202
v  91.2073 12.0000 -14.0291
v  89.7577 -0.0000 -30.4696
v  89.7577 12.0000 -30.4696
v  88.3081 -0.0000 -31.9194
v  88.3081 12.0000 -31.9194
v  74.3815 -0.0000 -31.9194
v  74.3815 12.0000 -31.9194
v  74.3815 -0.0000 0.0001
v  74.3815 12.0000 0.0001
v  79.7253 -0.0000 0.0001
v  79.7253 12.0000 0.0001
v  79.7253 -0.0000 -11.1299
v  79.7253 12.0000 -11.1299
v  82.9631 -0.0000 -11.1299
v  82.9631 12.0000 -11.1299
v  85.6391 -0.0000 -0.0005
v  85.6391 12.0000 -0.0005
v  90.9829 -0.0000 -0.0005
v  90.9829 12.0000 -0.0005
v  88.3069 -0.0000 -11.1299
v  88.3069 12.0000 -11.1299
v  88.3081 -0.0000 -11.1299
v  88.3081 12.0000 -11.1299
v  89.7575 -0.0000 -12.5795
v  89.7575 12.0000 -12.5795
v  85.8635 -0.0000 -15.7013
v  79.7253 -0.0000 -15.7013
v  79.7253 12.0000 -15.7013
v  85.8635 12.0000 -15.7013
v  79.7253 -0.0000 -27.3480
v  79.7253 12.0000 -27.3480
v  85.8635 -0.0000 -27.3480
v  85.8635 12.0000 -27.3480
# 274 vertices

vn -0.0000 -0.0000 1.0000
vn 1.0000 -0.0000 -0.0000
vn 0.9897 -0.0000 -0.1432
vn 0.0000 0.0000 -1.0000
vn -0.9897 0.0000 -0.1432
vn -1.0000 0.0000 -0.0000
vn -0.9850 0.0000 -0.1725
vn 0.9879 -0.0000 0.1551
vn -0.9879 0.0000 0.1551
vn 0.9850 -0.0000 -0.1726
vn 0.9342 -0.0000 -0.3568
vn -0.9342 0.0000 0.3568
vn -0.8776 0.0000 -0.4795
vn 0.8776 -0.0000 0.4794
vn -0.8792 -0.0000 0.4765
vn 0.8792 0.0000 -0.4765
vn 0.8776 -0.0000 0.4795
vn 0.7071 0.0000 -0.7071
vn -0.7071 0.0000 -0.7071
vn -0.9996 0.0000 0.0273
vn -0.9986 0.0000 0.0523
vn -0.9947 0.0000 0.1024
vn -0.9883 0.0000 0.1528
vn -0.9791 0.0000 0.2032
vn -0.9674 0.0000 0.2532
vn -0.9532 0.0000 0.3024
vn -0.9366 0.0000 0.3504
vn -0.9176 0.0000 0.3975
vn -0.8961 0.0000 0.4439
vn -0.8721 -0.0000 0.4894
vn -0.8459 -0.0000 0.5334
vn -0.8176 -0.0000 0.5758
vn -0.7876 -0.0000 0.6161
vn -0.7720 -0.0000 0.6356
vn -0.7543 -0.0000 0.6566
vn -0.7544 -0.0000 0.6565
vn -0.7072 -0.0000 0.7070
vn -0.7071 -0.0000 0.7071
vn -0.7070 -0.0000 0.7072
vn 0.7071 -0.0000 0.7071
vn 0.9996 -0.0000 -0.0273
vn 0.9986 -0.0000 -0.0523
vn 0.9947 -0.0000 -0.1024
vn 0.9883 -0.0000 -0.1528
vn 0.9791 -0.0000 -0.2032
vn 0.9674 -0.0000 -0.2532
vn 0.9532 -0.0000 -0.3023
vn 0.9366 -0.0000 -0.3504
vn 0.9176 -0.0000 -0.3975
vn 0.8961 -0.0000 -0.4439
vn 0.8721 0.0000 -0.4894
vn 0.8459 0.0000 -0.5334
vn 0.8176 0.0000 -0.5758
vn 0.7876 0.0000 -0.6161
vn 0.7720 0.0000 -0.6356
vn 0.7544 0.0000 -0.6565
vn 0.7543 0.0000 -0.6565
vn -0.9879 0.0000 -0.1551
vn 0.9879 -0.0000 -0.1551
vn -0.9850 0.0000 0.1725
vn 0.9850 -0.0000 0.1725
vn 0.7071 0.0000 -0.7072
vn 0.7072 0.0000 -0.7071
vn -0.9723 0.0000 0.2338
vn 0.9723 -0.0000 -0.2338
vn 0.7072 -0.0000 0.7071
vn 0.7071 -0.0000 0.7072
vn -0.0000 -1.0000 -0.0000
vn 0.0000 1.0000 0.0000
# 69 vertex normals

o Text001
g Text001
usemtl wire_184155229
s 1
f 1//1 2//1 3//1 
f 1//1 3//1 4//1 
s 4
f 2//2 5//2 6//2 
f 2//2 6//2 3//2 
s 2
f 5//1 7//1 8//1 
f 5//1 8//1 6//1 
s 4
f 7//3 9//3 10//3 
f 7//3 10//3 8//3 
s 2
f 9//4 11//4 12//4 
f 9//4 12//4 10//4 
s 4
f 11//5 13//5 14//5 
f 11//5 14//5 12//5 
s 2
f 13//1 15//1 16//1 
f 13//1 16//1 14//1 
s 4
f 15//6 1//6 4//6 
f 15//6 4//6 16//6 
s 1
f 17//4 18//4 19//4 
f 17//4 19//4 20//4 
s 4
f 18//7 21//7 22//7 
f 18//7 22//7 19//7 
s 2
f 21//1 23//1 24//1 
f 21//1 24//1 22//1 
s 4
f 23//8 25//8 26//8 
f 23//8 26//8 24//8 
s 2
f 25//1 27//1 28//1 
f 25//1 28//1 26//1 
s 4
f 27//9 29//9 30//9 
f 27//9 30//9 28//9 
s 2
f 29//1 31//1 32//1 
f 29//1 32//1 30//1 
s 4
f 31//10 17//10 20//10 
f 31//10 20//10 32//10 
s 1
f 33//8 34//8 35//8 
f 33//8 35//8 36//8 
s 4
f 34//9 37//9 38//9 
f 34//9 38//9 35//9 
s 2
f 37//4 33//4 36//4 
f 37//4 36//4 38//4 
s 1
f 39//6 40//6 41//6 
f 39//6 41//6 42//6 
s 4
f 40//11 43//11 44//11 
f 40//11 44//11 41//11 
s 2
f 43//4 45//4 46//4 
f 43//4 46//4 44//4 
s 4
f 45//6 47//6 48//6 
f 45//6 48//6 46//6 
s 2
f 47//1 49//1 50//1 
f 47//1 50//1 48//1 
s 4
f 49//2 51//2 52//2 
f 49//2 52//2 50//2 
s 2
f 51//12 53//12 54//12 
f 51//12 54//12 52//12 
s 4
f 53//1 55//1 56//1 
f 53//1 56//1 54//1 
s 2
f 55//2 57//2 58//2 
f 55//2 58//2 56//2 
s 4
f 57//4 39//4 42//4 
f 57//4 42//4 58//4 
s 1
f 59//4 60//4 61//4 
f 59//4 61//4 62//4 
s 4
f 60//13 63//13 64//13 
f 60//13 64//13 61//13 
s 2
f 63//2 65//2 66//2 
f 63//2 66//2 64//2 
s 4
f 65//4 67//4 68//4 
f 65//4 68//4 66//4 
s 2
f 67//6 69//6 70//6 
f 67//6 70//6 68//6 
s 4
f 69//1 71//1 72//1 
f 69//1 72//1 70//1 
s 2
f 71//2 73//2 74//2 
f 71//2 74//2 72//2 
s 4
f 73//14 75//14 76//14 
f 73//14 76//14 74//14 
s 2
f 75//15 77//15 78//15 
f 75//15 78//15 76//15 
s 4
f 77//1 79//1 80//1 
f 77//1 80//1 78//1 
s 2
f 79//16 81//16 82//16 
f 79//16 82//16 80//16 
s 4
f 81//17 59//17 62//17 
f 81//17 62//17 82//17 
s 1
f 83//2 84//2 85//2 
f 83//2 85//2 86//2 
s 4
f 84//18 87//18 88//18 
f 84//18 88//18 85//18 
f 87//18 89//18 90//18 
f 87//18 90//18 88//18 
s 2
f 89//4 91//4 92//4 
f 89//4 92//4 90//4 
s 4
f 91//19 93//19 94//19 
f 91//19 94//19 92//19 
f 93//19 95//19 96//19 
f 93//19 96//19 94//19 
s 2
f 95//6 97//6 98//6 
f 95//6 98//6 96//6 
s 4
f 97//20 99//21 100//21 
f 97//20 100//21 98//20 
f 99//21 101//22 102//22 
f 99//21 102//22 100//21 
f 101//22 103//23 104//23 
f 101//22 104//23 102//22 
f 103//23 105//24 106//24 
f 103//23 106//24 104//23 
f 105//24 107//25 108//25 
f 105//24 108//25 106//24 
f 107//25 109//26 110//26 
f 107//25 110//26 108//25 
f 109//26 111//27 112//27 
f 109//26 112//27 110//26 
f 111//27 113//28 114//28 
f 111//27 114//28 112//27 
f 113//28 115//29 116//29 
f 113//28 116//29 114//28 
f 115//29 117//30 118//30 
f 115//29 118//30 116//29 
f 117//30 119//31 120//31 
f 117//30 120//31 118//30 
f 119//31 121//32 122//32 
f 119//31 122//32 120//31 
f 121//32 123//33 124//33 
f 121//32 124//33 122//32 
f 123//33 125//34 126//34 
f 123//33 126//34 124//33 
s 2
f 125//35 127//35 128//35 
f 125//35 128//35 126//35 
s 4
f 127//36 129//36 130//36 
f 127//36 130//36 128//36 
s 2
f 129//6 131//6 132//6 
f 129//6 132//6 130//6 
s 4
f 131//4 133//4 134//4 
f 131//4 134//4 132//4 
s 2
f 133//2 135//2 136//2 
f 133//2 136//2 134//2 
s 4
f 135//4 137//4 138//4 
f 135//4 138//4 136//4 
s 2
f 137//6 139//6 140//6 
f 137//6 140//6 138//6 
s 4
f 139//37 141//38 142//38 
f 139//37 142//38 140//37 
f 141//38 143//39 144//39 
f 141//38 144//39 142//38 
s 2
f 143//1 145//1 146//1 
f 143//1 146//1 144//1 
s 4
f 145//40 147//40 148//40 
f 145//40 148//40 146//40 
f 147//40 149//40 150//40 
f 147//40 150//40 148//40 
s 2
f 149//2 151//2 152//2 
f 149//2 152//2 150//2 
s 4
f 151//41 153//42 154//42 
f 151//41 154//42 152//41 
f 153//42 155//43 156//43 
f 153//42 156//43 154//42 
f 155//43 157//44 158//44 
f 155//43 158//44 156//43 
f 157//44 159//45 160//45 
f 157//44 160//45 158//44 
f 159//45 161//46 162//46 
f 159//45 162//46 160//45 
f 161//46 163//47 164//47 
f 161//46 164//47 162//46 
f 163//47 165//48 166//48 
f 163//47 166//48 164//47 
f 165//48 167//49 168//49 
f 165//48 168//49 166//48 
f 167//49 169//50 170//50 
f 167//49 170//50 168//49 
f 169//50 171//51 172//51 
f 169//50 172//51 170//50 
f 171//51 173//52 174//52 
f 171//51 174//52 172//51 
f 173//52 175//53 176//53 
f 173//52 176//53 174//52 
f 175//53 177//54 178//54 
f 175//53 178//54 176//53 
f 177//54 179//55 180//55 
f 177//54 180//55 178//54 
s 2
f 179//56 181//56 182//56 
f 179//56 182//56 180//56 
s 4
f 181//57 183//57 184//57 
f 181//57 184//57 182//57 
s 2
f 183//2 185//2 186//2 
f 183//2 186//2 184//2 
s 4
f 185//1 187//1 188//1 
f 185//1 188//1 186//1 
s 2
f 187//6 189//6 190//6 
f 187//6 190//6 188//6 
s 4
f 189//1 83//1 86//1 
f 189//1 86//1 190//1 
s 1
f 191//58 192//58 193//58 
f 191//58 193//58 194//58 
s 4
f 192//59 195//59 196//59 
f 192//59 196//59 193//59 
s 2
f 195//4 197//4 198//4 
f 195//4 198//4 196//4 
s 4
f 197//58 199//58 200//58 
f 197//58 200//58 198//58 
s 2
f 199//59 201//59 202//59 
f 199//59 202//59 200//59 
s 4
f 201//4 203//4 204//4 
f 201//4 204//4 202//4 
s 2
f 203//60 205//60 206//60 
f 203//60 206//60 204//60 
s 4
f 205//1 207//1 208//1 
f 205//1 208//1 206//1 
s 2
f 207//61 209//61 210//61 
f 207//61 210//61 208//61 
s 4
f 209//60 211//60 212//60 
f 209//60 212//60 210//60 
s 2
f 211//1 213//1 214//1 
f 211//1 214//1 212//1 
s 4
f 213//61 215//61 216//61 
f 213//61 216//61 214//61 
s 2
f 215//4 191//4 194//4 
f 215//4 194//4 216//4 
s 1
f 217//4 218//4 219//4 
f 217//4 219//4 220//4 
s 4
f 218//7 221//7 222//7 
f 218//7 222//7 219//7 
s 2
f 221//1 223//1 224//1 
f 221//1 224//1 222//1 
s 4
f 223//8 225//8 226//8 
f 223//8 226//8 224//8 
s 2
f 225//1 227//1 228//1 
f 225//1 228//1 226//1 
s 4
f 227//9 229//9 230//9 
f 227//9 230//9 228//9 
s 2
f 229//1 231//1 232//1 
f 229//1 232//1 230//1 
s 4
f 231//10 217//10 220//10 
f 231//10 220//10 232//10 
s 1
f 233//8 234//8 235//8 
f 233//8 235//8 236//8 
s 4
f 234//9 237//9 238//9 
f 234//9 238//9 235//9 
s 2
f 237//4 233//4 236//4 
f 237//4 236//4 238//4 
s 1
f 239//2 240//2 241//2 
f 239//2 241//2 242//2 
s 4
f 240//62 243//18 244//18 
f 240//62 244//18 241//62 
f 243//18 245//63 246//63 
f 243//18 246//63 244//18 
s 2
f 245//4 247//4 248//4 
f 245//4 248//4 246//4 
s 4
f 247//6 249//6 250//6 
f 247//6 250//6 248//6 
s 2
f 249//1 251//1 252//1 
f 249//1 252//1 250//1 
s 4
f 251//2 253//2 254//2 
f 251//2 254//2 252//2 
s 2
f 253//1 255//1 256//1 
f 253//1 256//1 254//1 
s 4
f 255//64 257//64 258//64 
f 255//64 258//64 256//64 
s 2
f 257//1 259//1 260//1 
f 257//1 260//1 258//1 
s 4
f 259//65 261//65 262//65 
f 259//65 262//65 260//65 
s 2
f 261//1 263//1 264//1 
f 261//1 264//1 262//1 
s 4
f 263//66 265//40 266//40 
f 263//66 266//40 264//66 
f 265//40 239//67 242//67 
f 265//40 242//67 266//40 
s 2
f 239//2 239//2 242//2 
f 239//2 242//2 242//2 
s 1
f 267//4 268//4 269//4 
f 267//4 269//4 270//4 
s 4
f 268//2 271//2 272//2 
f 268//2 272//2 269//2 
s 2
f 271//1 273//1 274//1 
f 271//1 274//1 272//1 
s 4
f 273//6 267//6 270//6 
f 273//6 270//6 274//6 
s 16
f 11//68 15//68 13//68 
f 9//68 15//68 11//68 
f 5//68 9//68 7//68 
f 5//68 15//68 9//68 
f 2//68 15//68 5//68 
f 2//68 1//68 15//68 
f 31//68 34//68 17//68 
f 31//68 37//68 34//68 
f 34//68 18//68 17//68 
f 34//68 21//68 18//68 
f 33//68 21//68 34//68 
f 33//68 23//68 21//68 
f 33//68 25//68 23//68 
f 33//68 27//68 25//68 
f 37//68 27//68 33//68 
f 31//68 27//68 37//68 
f 31//68 29//68 27//68 
f 55//68 39//68 57//68 
f 55//68 40//68 39//68 
f 53//68 40//68 55//68 
f 51//68 40//68 53//68 
f 51//68 43//68 40//68 
f 51//68 45//68 43//68 
f 51//68 47//68 45//68 
f 49//68 47//68 51//68 
f 81//68 60//68 59//68 
f 81//68 63//68 60//68 
f 77//68 81//68 79//68 
f 75//68 81//68 77//68 
f 75//68 63//68 81//68 
f 69//68 73//68 71//68 
f 67//68 73//68 69//68 
f 67//68 75//68 73//68 
f 67//68 63//68 75//68 
f 67//68 65//68 63//68 
f 187//68 83//68 189//68 
f 187//68 84//68 83//68 
f 187//68 87//68 84//68 
f 187//68 89//68 87//68 
f 187//68 91//68 89//68 
f 185//68 91//68 187//68 
f 185//68 93//68 91//68 
f 135//68 139//68 137//68 
f 133//68 139//68 135//68 
f 133//68 141//68 139//68 
f 133//68 143//68 141//68 
f 133//68 145//68 143//68 
f 131//68 145//68 133//68 
f 131//68 147//68 145//68 
f 185//68 95//68 93//68 
f 185//68 97//68 95//68 
f 183//68 97//68 185//68 
f 131//68 149//68 147//68 
f 131//68 151//68 149//68 
f 129//68 151//68 131//68 
f 183//68 99//68 97//68 
f 183//68 101//68 99//68 
f 183//68 103//68 101//68 
f 183//68 105//68 103//68 
f 183//68 107//68 105//68 
f 183//68 109//68 107//68 
f 183//68 111//68 109//68 
f 183//68 113//68 111//68 
f 183//68 115//68 113//68 
f 183//68 117//68 115//68 
f 183//68 119//68 117//68 
f 183//68 121//68 119//68 
f 183//68 123//68 121//68 
f 183//68 125//68 123//68 
f 183//68 127//68 125//68 
f 181//68 127//68 183//68 
f 181//68 129//68 127//68 
f 179//68 129//68 181//68 
f 179//68 151//68 129//68 
f 179//68 153//68 151//68 
f 177//68 153//68 179//68 
f 177//68 155//68 153//68 
f 175//68 155//68 177//68 
f 175//68 157//68 155//68 
f 173//68 157//68 175//68 
f 173//68 159//68 157//68 
f 173//68 161//68 159//68 
f 173//68 163//68 161//68 
f 173//68 165//68 163//68 
f 173//68 167//68 165//68 
f 173//68 169//68 167//68 
f 171//68 169//68 173//68 
f 213//68 191//68 215//68 
f 213//68 192//68 191//68 
f 211//68 192//68 213//68 
f 209//68 192//68 211//68 
f 209//68 195//68 192//68 
f 209//68 197//68 195//68 
f 209//68 199//68 197//68 
f 207//68 199//68 209//68 
f 205//68 199//68 207//68 
f 203//68 199//68 205//68 
f 203//68 201//68 199//68 
f 231//68 234//68 217//68 
f 231//68 237//68 234//68 
f 234//68 218//68 217//68 
f 234//68 221//68 218//68 
f 233//68 221//68 234//68 
f 233//68 223//68 221//68 
f 233//68 225//68 223//68 
f 233//68 227//68 225//68 
f 237//68 227//68 233//68 
f 231//68 227//68 237//68 
f 231//68 229//68 227//68 
f 267//68 240//68 239//68 
f 273//68 240//68 267//68 
f 273//68 243//68 240//68 
f 257//68 261//68 259//68 
f 255//68 261//68 257//68 
f 273//68 245//68 243//68 
f 273//68 247//68 245//68 
f 271//68 247//68 273//68 
f 271//68 249//68 247//68 
f 268//68 249//68 271//68 
f 249//68 253//68 251//68 
f 268//68 253//68 249//68 
f 267//68 253//68 268//68 
f 267//68 255//68 253//68 
f 267//68 261//68 255//68 
f 239//68 261//68 267//68 
f 261//68 265//68 263//68 
f 239//68 265//68 261//68 
f 239//68 239//2 265//68 
f 12//69 14//69 16//69 
f 10//69 12//69 16//69 
f 6//69 8//69 10//69 
f 6//69 10//69 16//69 
f 3//69 6//69 16//69 
f 3//69 16//69 4//69 
f 32//69 20//69 35//69 
f 32//69 35//69 38//69 
f 35//69 20//69 19//69 
f 35//69 19//69 22//69 
f 36//69 35//69 22//69 
f 36//69 22//69 24//69 
f 36//69 24//69 26//69 
f 36//69 26//69 28//69 
f 38//69 36//69 28//69 
f 32//69 38//69 28//69 
f 32//69 28//69 30//69 
f 56//69 58//69 42//69 
f 56//69 42//69 41//69 
f 54//69 56//69 41//69 
f 52//69 54//69 41//69 
f 52//69 41//69 44//69 
f 52//69 44//69 46//69 
f 52//69 46//69 48//69 
f 50//69 52//69 48//69 
f 82//69 62//69 61//69 
f 82//69 61//69 64//69 
f 78//69 80//69 82//69 
f 76//69 78//69 82//69 
f 76//69 82//69 64//69 
f 70//69 72//69 74//69 
f 68//69 70//69 74//69 
f 68//69 74//69 76//69 
f 68//69 76//69 64//69 
f 68//69 64//69 66//69 
f 188//69 190//69 86//69 
f 188//69 86//69 85//69 
f 188//69 85//69 88//69 
f 188//69 88//69 90//69 
f 188//69 90//69 92//69 
f 186//69 188//69 92//69 
f 186//69 92//69 94//69 
f 136//69 138//69 140//69 
f 134//69 136//69 140//69 
f 134//69 140//69 142//69 
f 134//69 142//69 144//69 
f 134//69 144//69 146//69 
f 132//69 134//69 146//69 
f 132//69 146//69 148//69 
f 186//69 94//69 96//69 
f 186//69 96//69 98//69 
f 184//69 186//69 98//69 
f 132//69 148//69 150//69 
f 132//69 150//69 152//69 
f 130//69 132//69 152//69 
f 184//69 98//69 100//69 
f 184//69 100//69 102//69 
f 184//69 102//69 104//69 
f 184//69 104//69 106//69 
f 184//69 106//69 108//69 
f 184//69 108//69 110//69 
f 184//69 110//69 112//69 
f 184//69 112//69 114//69 
f 184//69 114//69 116//69 
f 184//69 116//69 118//69 
f 184//69 118//69 120//69 
f 184//69 120//69 122//69 
f 184//69 122//69 124//69 
f 184//69 124//69 126//69 
f 184//69 126//69 128//69 
f 182//69 184//69 128//69 
f 182//69 128//69 130//69 
f 180//69 182//69 130//69 
f 180//69 130//69 152//69 
f 180//69 152//69 154//69 
f 178//69 180//69 154//69 
f 178//69 154//69 156//69 
f 176//69 178//69 156//69 
f 176//69 156//69 158//69 
f 174//69 176//69 158//69 
f 174//69 158//69 160//69 
f 174//69 160//69 162//69 
f 174//69 162//69 164//69 
f 174//69 164//69 166//69 
f 174//69 166//69 168//69 
f 174//69 168//69 170//69 
f 172//69 174//69 170//69 
f 214//69 216//69 194//69 
f 214//69 194//69 193//69 
f 212//69 214//69 193//69 
f 210//69 212//69 193//69 
f 210//69 193//69 196//69 
f 210//69 196//69 198//69 
f 210//69 198//69 200//69 
f 208//69 210//69 200//69 
f 206//69 208//69 200//69 
f 204//69 206//69 200//69 
f 204//69 200//69 202//69 
f 232//69 220//69 235//69 
f 232//69 235//69 238//69 
f 235//69 220//69 219//69 
f 235//69 219//69 222//69 
f 236//69 235//69 222//69 
f 236//69 222//69 224//69 
f 236//69 224//69 226//69 
f 236//69 226//69 228//69 
f 238//69 236//69 228//69 
f 232//69 238//69 228//69 
f 232//69 228//69 230//69 
f 270//69 242//69 241//69 
f 274//69 270//69 241//69 
f 274//69 241//69 244//69 
f 258//69 260//69 262//69 
f 256//69 258//69 262//69 
f 274//69 244//69 246//69 
f 274//69 246//69 248//69 
f 272//69 274//69 248//69 
f 272//69 248//69 250//69 
f 269//69 272//69 250//69 
f 250//69 252//69 254//69 
f 269//69 250//69 254//69 
f 270//69 269//69 254//69 
f 270//69 254//69 256//69 
f 270//69 256//69 262//69 
f 242//69 270//69 262//69 
f 262//69 264//69 266//69 
f 242//69 262//69 266//69 
f 242//69 266//69 242//2 
# 532 faces

